HIERARCHY
ROOT hip
{
	OFFSET 0.000000 0.000000 0.000000 
	CHANNELS 6 Xposition Yposition Zposition Xrotation Zrotation Yrotation
	JOINT abdomen
	{
		OFFSET 0.000000 3.402643 0.000000 
		CHANNELS 3 Xrotation Zrotation Yrotation
		JOINT chest
		{
			OFFSET 0.000000 8.438565 -0.680529 
			CHANNELS 3 Xrotation Zrotation Yrotation
			JOINT neck
			{
				OFFSET 0.000000 10.207942 -0.272212 
				CHANNELS 3 Xrotation Zrotation Yrotation
				JOINT head
				{
					OFFSET 0.000000 3.130431 0.000000 
					CHANNELS 3 Xrotation Zrotation Yrotation
					End Site
					{
						OFFSET 0.000000 3.130435 0.000000 
					}
				}
			}
			JOINT lCollar
			{
				OFFSET 3.470700 6.669187 -0.816635 
				CHANNELS 3 Yrotation Zrotation Xrotation
				JOINT lShldr
				{
					OFFSET 3.198488 0.000000 0.000000 
					CHANNELS 3 Zrotation Yrotation Xrotation
					JOINT lForeArm
					{
						OFFSET 10.139888 0.000000 0.000000 
						CHANNELS 3 Yrotation Zrotation Xrotation
						JOINT lHand
						{
							OFFSET 8.370511 0.000000 0.000000 
							CHANNELS 3 Zrotation Yrotation Xrotation
							End Site
							{
								OFFSET 4.083176 0.000000 0.000000 
							}
						}
					}
				}
			}
			JOINT rCollar
			{
				OFFSET -3.470700 6.669187 -0.816635 
				CHANNELS 3 Yrotation Zrotation Xrotation
				JOINT rShldr
				{
					OFFSET -3.198488 0.000000 0.000000 
					CHANNELS 3 Zrotation Yrotation Xrotation
					JOINT rForeArm
					{
						OFFSET -10.139888 0.000000 0.000000 
						CHANNELS 3 Yrotation Zrotation Xrotation
						JOINT rHand
						{
							OFFSET -8.370511 0.000000 0.000000 
							CHANNELS 3 Zrotation Yrotation Xrotation
							End Site
							{
								OFFSET -4.083176 0.000000 0.000000 
							}
						}
					}
				}
			}
		}
	}
	JOINT lThigh
	{
		OFFSET 5.308129 -1.633274 1.361059 
		CHANNELS 3 Xrotation Zrotation Yrotation
		JOINT lShin
		{
			OFFSET -2.041588 -20.007561 0.000000 
			CHANNELS 3 Xrotation Zrotation Yrotation
			JOINT lFoot
			{
				OFFSET 0.000000 -19.190928 -1.224953 
				CHANNELS 3 Xrotation Yrotation Zrotation
				End Site
				{
					OFFSET 0.000000 -2.449906 4.627600 
				}
			}
		}
	}
	JOINT rThigh
	{
		OFFSET -5.308129 -1.633274 1.361059 
		CHANNELS 3 Xrotation Zrotation Yrotation
		JOINT rShin
		{
			OFFSET 2.041588 -20.007561 0.000000 
			CHANNELS 3 Xrotation Zrotation Yrotation
			JOINT rFoot
			{
				OFFSET 0.000000 -19.190928 -1.224953 
				CHANNELS 3 Xrotation Yrotation Zrotation
				End Site
				{
					OFFSET 0.000000 -2.449906 4.627600 
				}
			}
		}
	}
}
MOTION
Frames: 16
Frame Time: 0.050000
2.060094 0.479756 3.376376 93.810501 -5.289520 -2.656590 -5.114753 -0.304399 -1.234659 -1.992537 -1.616544 0.100931 -50.065613 1.530449 1.266688 -27.161463 0.737478 -0.047309 22.712778 14.871095 -5.689671 12.894431 -0.094999 23.713850 -12.520299 -32.161144 -5.700336 19.371433 -15.281772 -105.191277 -21.694010 8.334641 -3.318262 -20.100290 -27.170984 9.003261 71.096107 -18.872225 34.498398 66.015602 22.251150 9.364677 49.224697 13.115595 9.110965 -3.193318 -1.979336 0.680835 -22.450642 8.609349 2.608778 27.536058 -25.953613 -6.093119 41.342426 4.618559 2.766417 -29.199100 1.588503 15.159225 
-0.331712 13.789597 4.183705 93.810501 -5.289520 -2.656590 -5.109250 -2.816480 -1.517480 -3.851740 -2.362460 0.004038 -46.266602 6.187440 0.180005 -35.561199 2.093480 -0.068177 39.720001 9.355520 -11.404800 29.402031 7.538817 8.747293 -0.505859 -2.572216 -11.972190 -393.539459 -35.185543 -89.746750 -26.053801 25.000000 -6.027850 -44.357082 -12.024458 37.325020 0.197081 0.369667 23.074259 -9.974561 63.458565 -132.692871 22.769575 17.887148 -6.690305 48.394371 -3.924823 -4.112678 -58.790676 18.072826 7.758772 15.000053 -25.927032 -3.143352 62.728970 4.454217 5.175528 -38.954865 2.695566 12.163960 
-0.889732 7.991680 3.951976 93.810501 -5.289520 -2.656590 4.494470 -8.263700 1.242330 -4.031540 -0.056832 -0.626838 0.525299 13.457447 -5.055061 -9.621490 3.365289 -0.569806 45.000000 6.136543 -12.578399 98.768372 -57.388630 -23.951080 105.955956 -60.734501 57.278130 -361.205688 -46.415699 -119.397919 -17.040691 25.000000 -4.817218 -35.331043 -5.606266 49.162205 0.159728 0.537616 22.029266 -12.739525 37.741161 -249.466263 -36.914272 9.973984 -36.537678 103.850471 -0.860326 -8.836555 -51.919289 29.974787 -9.134506 -39.875423 -27.507313 16.284016 89.349434 3.134787 7.994793 -16.756821 6.416337 13.474085 
-1.017021 0.830706 3.865056 93.810501 -5.289520 -2.656590 -3.372260 -5.143350 3.673210 -2.167280 2.291410 -1.110190 -30.482700 16.012699 -8.607860 -8.990790 3.389450 -0.992576 39.434898 8.500980 -8.575870 -70.468781 -121.663513 69.012497 -55.539200 -116.792603 -97.092186 -342.355896 69.455162 -152.599121 -3.068680 13.707200 -1.249520 -16.833294 9.689795 39.648598 0.484714 2.074267 16.697729 14.043126 11.257457 -198.978760 -34.543720 11.427736 -36.111996 81.213806 -1.895015 -6.962832 -15.845740 47.822704 -20.901169 -18.983761 -28.017174 3.943433 47.947475 4.623969 3.507990 8.073991 -5.769007 15.231930 
-0.498689 0.791352 3.607086 93.810501 -5.289520 -2.656590 -2.473930 -2.031895 2.205140 1.416703 1.609251 -0.802353 -29.327312 7.990069 -5.115655 -4.051016 1.403420 -0.793739 14.689691 17.900490 -0.503323 -35.053822 -64.633064 23.380281 34.700962 -85.408180 26.387981 -420.331238 14.041672 79.468239 5.601710 -0.317005 2.285834 2.523702 8.836227 33.235447 4.375477 15.039361 12.503714 6.331275 -2.049104 -105.211105 -31.157557 22.764875 -22.816801 54.142380 -3.026545 -4.475596 13.720187 50.296169 -23.711397 -16.931393 -21.721010 -0.013705 33.211021 5.007533 1.844669 21.005915 -21.896795 13.954939 
0.182384 2.674573 3.282943 93.810501 -5.289520 -2.656590 3.134660 -0.279188 -0.277228 4.866760 0.052577 -0.295808 -9.109950 -1.907410 0.004179 4.678590 -0.845066 -0.429806 -10.639400 27.755600 7.300380 -62.022449 -8.996272 24.333681 -37.544346 -47.050125 -13.865668 -45.268940 -33.640289 45.378941 10.878600 -12.286300 5.109990 17.503044 5.450716 30.009706 11.211473 28.317949 10.439324 -6.338532 -6.476906 -22.590197 -23.079029 29.856771 -5.672635 23.959108 -3.755872 -1.613242 36.474426 50.704182 -18.059624 -26.997662 -14.002003 2.080379 33.615452 4.520679 1.811488 28.761236 -37.884510 13.783368 
0.182384 2.674573 3.282943 93.810501 -5.289520 -2.656590 2.350995 -0.209391 -0.207921 3.650070 0.039433 -0.221856 -14.461926 -1.745565 0.186379 2.056305 -0.723109 -0.370055 -6.407840 25.799950 5.548565 -64.482658 -6.850379 25.127518 -34.741413 -41.964760 -8.843097 -19.681488 -52.117241 8.072742 4.670000 -11.808849 3.857335 16.180862 8.183606 28.522514 12.875645 31.227430 9.559967 -6.502517 -4.767159 -16.809772 -18.907761 28.822206 -3.817269 25.051361 -3.780196 -1.727550 23.378592 38.738983 -11.992150 -22.966562 -14.263582 1.565045 40.134346 4.633259 2.587703 18.374371 -28.903116 10.283406 
0.182384 2.674573 3.282943 93.810501 -5.289520 -2.656590 1.567330 -0.139594 -0.138614 2.433380 0.026288 -0.147904 -19.813900 -1.583720 0.368578 -0.565980 -0.601151 -0.310304 -2.176280 23.844299 3.796750 -58.792656 -8.198313 24.087812 -43.312557 -44.287594 -11.467950 2.960182 -48.654083 -22.612961 -1.538600 -11.331400 2.604680 14.847880 10.926767 27.032349 14.534760 34.143639 8.687459 -6.052309 -3.308329 -11.192658 -14.713510 27.710361 -1.968139 26.081989 -3.824300 -1.812652 13.944708 25.848572 -9.435799 -17.063234 -14.388906 0.728556 43.323769 4.660751 2.967594 10.092257 -19.753094 7.368715 
0.182384 2.674573 3.282943 93.810501 -5.289520 -2.656590 0.783665 -0.069797 -0.069307 1.216690 0.013144 -0.073952 -25.165901 -1.421875 0.550777 -3.188265 -0.479194 -0.250553 2.055275 21.888699 2.044930 -57.420254 -8.717031 23.929186 -46.684238 -43.115051 -10.581678 9.511651 -42.970829 -35.087387 -7.747200 -10.853951 1.352023 13.522463 13.670764 25.538307 16.177319 37.075989 7.814805 -6.221903 -1.609045 -5.439898 -10.553217 26.678539 -0.141620 27.191389 -3.863944 -1.914121 2.285598 13.651492 -4.680033 -12.955977 -14.650849 0.230005 49.538864 4.744268 3.708148 0.123725 -10.770804 4.035645 
0.182384 2.674573 3.282943 93.810501 -5.289520 -2.656590 0.000000 0.000000 0.000000 0.000000 0.000000 0.000000 -30.517900 -1.260030 0.732976 -5.810550 -0.357236 -0.190802 6.286830 19.933100 0.293111 -56.703011 -7.335567 24.026760 -48.396347 -41.176849 -8.617382 11.929409 -38.747700 -41.055340 -13.955800 -10.376500 0.099365 12.193951 16.404392 24.049162 17.829739 40.007145 6.950866 -5.779562 -0.139937 0.192591 -6.345769 25.568085 1.691371 28.199175 -3.926481 -2.004241 -8.553141 1.019869 -0.822315 -7.128221 -14.782889 -0.578244 53.045219 4.833995 4.115451 -8.568523 -1.628154 0.962111 
0.170852 2.927237 3.158688 93.494949 -5.263522 -0.459938 0.150640 0.156195 0.692059 -0.457018 0.193742 -0.019576 -32.871811 -1.179252 0.676292 -6.999915 -0.299399 0.201072 9.279541 18.652496 -0.564896 -52.792152 -9.412045 24.186323 -51.206936 -40.622494 -9.278519 17.936859 -34.394577 -49.147045 -16.920921 -9.526651 -0.526941 12.366465 16.746876 24.056269 20.837246 41.985710 6.910087 -8.440108 -5.437430 0.528217 -12.141804 27.211918 3.111747 39.368839 -3.637408 -2.651455 -18.735014 -3.061312 1.379849 -4.321187 -13.943251 -1.214058 54.011929 4.789772 3.570678 -13.143692 0.532780 0.539803 
0.137738 3.564292 2.841995 92.713982 -5.198345 5.046114 1.400766 0.465204 2.329160 -0.218705 0.687829 -0.147168 -32.650368 -1.160614 0.188868 -6.990603 -0.292943 0.810198 12.063998 17.673306 -0.724122 -47.336666 -16.790384 21.417458 -54.203465 -40.603580 -11.776028 22.658472 -27.998100 -56.297829 -17.238132 -8.015331 -0.667440 15.321263 14.185441 25.302485 25.834829 41.946785 8.361210 -14.061107 -21.561335 -6.091684 -30.249435 33.304844 4.390925 61.413208 -2.519019 -3.595803 -28.758297 -0.841036 2.411350 -5.211513 -12.036760 -1.656572 54.697552 4.578218 2.007483 -15.784858 -4.602597 2.447771 
0.085266 4.404332 2.416985 91.716125 -5.113219 12.235712 3.184441 0.844706 4.408634 0.391435 1.321973 -0.319679 -30.970814 -1.175503 -0.795408 -6.316652 -0.314046 0.921274 14.870689 16.889362 -0.503968 -43.359951 -27.067356 14.454545 -52.308254 -39.505600 -12.122871 25.429157 -21.843342 -61.194649 -16.009552 -6.325616 -0.532983 18.199673 9.566506 26.059027 34.446941 42.084087 9.167314 -19.418253 -46.459995 -19.092215 -52.991150 40.815655 5.140988 80.375565 -1.554415 -3.940730 -31.036835 1.380921 4.621519 -7.713750 -10.489653 -2.038332 54.346981 4.303479 -0.192697 -16.196381 -13.341010 5.506462 
0.015658 5.265955 1.967768 90.749901 -5.027370 19.483000 4.935730 1.212380 6.427810 1.049900 1.935890 -0.474013 -28.950399 -1.195310 -2.342650 -5.512100 -0.338887 -0.181002 17.930099 16.194500 -0.223837 -42.261196 -38.688061 5.568393 -45.364796 -37.013794 -9.628057 30.263597 -17.336580 -63.724613 -14.337300 -4.940580 -0.334420 18.477636 3.410534 25.600777 53.423866 44.513603 3.639822 -41.022213 -78.750519 -23.649168 -75.484978 44.860847 4.186435 93.729355 -1.319240 -3.992582 -28.210760 1.773342 10.571927 -10.287387 -9.603830 -2.330101 54.214954 3.974095 -2.370988 -15.905062 -22.416229 8.413203 
-0.063492 6.014315 1.564172 89.979233 -4.954485 25.456167 6.269420 1.500521 7.989348 1.508822 2.417331 -0.566217 -27.491701 -1.197143 -4.423132 -5.009182 -0.348607 -2.917239 21.365311 15.474802 -0.139952 -44.751797 -51.230083 -0.102833 -34.616871 -32.267330 -4.852500 41.653664 -16.759600 -66.354622 -13.113689 -4.235246 -0.237657 18.168896 -3.779970 25.141420 87.935143 43.905148 -12.545050 -179.454788 -56.694153 78.153351 -93.906021 43.963047 0.221569 102.569580 -1.685968 -3.810892 -25.973392 -2.001817 15.983582 -12.154876 -9.186109 -2.450390 55.633511 3.698530 -4.036650 -16.703638 -29.166895 10.255695 
-0.123115 6.700806 1.218873 89.229652 -4.886093 29.999577 7.523190 1.699894 9.117231 1.822871 2.846201 -0.628919 -26.638668 -1.180989 -6.623777 -4.832943 -0.344201 -6.529260 24.869787 14.585379 -0.255827 -49.923637 -63.288227 0.381485 -26.371645 -27.180040 -2.028358 59.018818 -18.086977 -68.645180 -12.391813 -4.152433 -0.228822 25.689074 -5.776880 24.686171 113.770439 36.585903 -21.591454 -3.293075 192.180496 -135.969482 -108.558792 40.998451 -4.566752 109.150833 -2.081996 -3.613022 -26.297703 -10.406348 17.290356 -13.122232 -8.877850 -2.446821 57.702579 3.445345 -5.572910 -18.040413 -33.551922 11.454915 
